<svg xmlns="http://www.w3.org/2000/svg" width="168" height="124"><path fill="#b71c22" d="M86.2 74.93c-3.082-1.918-6.528-3.177-10.12-3.7-.5-.08-.35.35-.5.68-.24.5-.57 1 .1 1.12 3.43.484 6.72 1.69 9.65 3.54M20.67 98.25v-.92c0-13.57 10.262-24.94 23.76-26.33.9-.1 1.32 1.72.63 1.78-12.392 1.064-22.04 11.21-22.48 23.64"/><path fill="#b71c22" d="M58.18 86.58c-.34 0-.663-.137-.9-.38L42.9 71.75l3.7-5.9c.203-.315.534-.525.905-.575.37-.05.746.065 1.025.315l8.28 7.27c.208.182.35.428.4.7l2.27 11.55c.06.358-.044.724-.28 1-.25.29-.617.455-1 .45zm-12.93-15.1l12 12.1-1.92-9.5-7.6-6.68-2.48 4.1zm17.15 15.1c-.383.005-.75-.16-1-.45-.244-.272-.353-.64-.3-1l2.23-11.57c.055-.264.196-.503.4-.68l8.27-7.3c.285-.268.676-.393 1.064-.34.388.05.732.276.936.61l3.7 5.9L63.3 86.2c-.238.24-.562.377-.9.38zm2.75-12.5l-1.83 9.5 12-12.1-2.57-4-7.64 6.62z"/><path fill="#b71c22" d="M65.53 61.12l1 10.95 1.7-1.67-1-10.17c-.548.335-1.115.635-1.7.9zM52.3 60.1l-1.12 9.95 1.7 1.44L54 61c-.585-.265-1.152-.565-1.7-.9z"/><path fill="#f1d5d6" d="M48.62 19.94c-11.84 0-9.2 16.65-7.26 19.93 2.8-5.52 5-12.3 11.25-13.16 1.82-.26 9.43 3 17.54-.87.076-.07.194-.07.27 0 .8 1.2 6.13 8.94 8.17 8.94s-.86-18.2-.86-18.2c-4.38.892-8.903.834-13.26-.17-6.24-1.85-10.2-2.38-13.93.9-.924.802-1.615 1.838-2 3-.2.613-.295 1.255-.28 1.9"/><path fill="#b71c22" d="M78.83 34.63c-.065.078-.16.125-.26.13-.706-.152-1.346-.523-1.83-1.06.466 2.05.7 4.147.7 6.25 0 12.36-7.88 22.36-17.55 22.36-9.67 0-17.56-10-17.56-22.35 0-.767.033-1.523.1-2.27-.36.74-.7 1.48-1.07 2.2-.347-.66-.616-1.358-.8-2.08 0 .7-.1 1.38-.1 2.1C40.48 53.2 49.2 64 59.9 64c10.68 0 19.4-10.8 19.4-24.1 0-1.767-.157-3.53-.47-5.27z"/><path fill="#b71c22" d="M41.5 42.3l-.83-1.5c-1.43-2.4-3.23-11.23 0-16.67 1.554-2.692 4.432-4.344 7.54-4.33.483-.885 1.128-1.672 1.9-2.32 4.3-3.72 9.06-2.75 14.8-1.07 4.222.964 8.6 1.032 12.85.2l.94-.2.15.92c.84 4.9 2.63 16.57 1 18.5-.25.294-.614.466-1 .47-2 0-5.76-4.64-8.6-8.74-4.84 1.875-10.137 2.224-15.18 1-.656-.157-1.326-.25-2-.28-4.9.73-7.07 5.23-9.37 10-.4.847-.81 1.68-1.23 2.5l-.9 1.52zm6-20.57c-2.207.17-4.186 1.425-5.28 3.35-2.22 3.92-1.57 9.87-.65 13.06l.3-.6c2.4-5 4.87-10.1 10.75-11 .916-.027 1.832.074 2.72.3 4.85 1.224 9.968.838 14.58-1.1.505-.246 1.114-.085 1.43.38 1.907 3.15 4.323 5.96 7.15 8.32.53-1.74-.24-9.17-1.35-15.86-4.25.746-8.606.61-12.8-.4C58 16.37 54.6 16 51.24 18.9c-.82.672-1.442 1.553-1.8 2.55-.167.5-.248 1.023-.24 1.55h-1.83c.003-.427.05-.853.14-1.27zM150 77.86c-4.642-6.294-12-10.007-19.82-10V66c8.946-.005 17.29 4.51 22.18 12M78.65 93.3v-.9c.003-7.024 2.797-13.758 7.767-18.72 4.97-4.964 11.71-7.748 18.733-7.74l.4.72.65 1.1h-1.06c-13.235.002-24.096 10.474-24.58 23.7"/><path fill="#b71c22" d="M124.5 68.07l-1.35-11.25 1.98-.24 1.14 9.46 3.57-.07.04 2zm-13.05 0l-5.9-.1.02-2 4.08.07 1-9.2 2 .22-1.2 11z"/><path fill="#f1d5d6" d="M117.58 8.68c-13.255 0-24 10.745-24 24V50.5h10.7c-3.255-4.505-4.967-9.942-4.88-15.5 0-3.2-.37-4.74.5-7.5.64-2 15.2 2.3 18.63-.07 2.48-1.7 3.3-5.3 5.06-6.56l-.95 3.5 5.13 4.75c9.67 0 6.73-6.47 6.73 5.9.077 5.553-1.642 10.982-4.9 15.48h11.93V32.63c-.028-13.216-10.734-23.922-23.95-23.95z"/><path fill="#b71c22" d="M141.27 51.74h-9.54v-2h9.54c.094 0 .17-.076.17-.17v-16.7c.565-8.56-3.68-16.725-11.015-21.177-7.334-4.452-16.536-4.452-23.87 0S94.975 24.31 95.54 32.87v16.7c0 .094.076.17.17.17h8.7v2h-8.7c-1.195-.006-2.16-.975-2.16-2.17v-16.7c-.588-9.29 4.034-18.14 11.996-22.963 7.963-4.823 17.945-4.823 25.908 0 7.962 4.824 12.584 13.672 11.996 22.963v16.7c0 1.198-.972 2.17-2.17 2.17z"/><path fill="#b71c22" d="M113.4 29.5c-.77 0-1.54-.068-2.3-.2l-13-2.22.35-2 13 2.2c2.66.485 5.403-.036 7.7-1.46 2.134-1.308 3.608-3.466 4.05-5.93l2 .33c-.534 3.022-2.336 5.672-4.95 7.28-2.04 1.308-4.416 2.002-6.84 2z"/><path fill="#b71c22" d="M131 29.86c-3.768.022-7.235-2.05-9-5.38l1.77-.94c1.01 1.91 2.736 3.337 4.8 3.97 2.064.63 4.295.416 6.2-.6l.94 1.78c-1.447.77-3.06 1.176-4.7 1.18z"/><path fill="#b71c22" d="M117.87 59.1c-10.7 0-19.4-10.85-19.4-24.16s8.7-24.15 19.4-24.15 19.4 10.83 19.4 24.14-8.7 24.15-19.4 24.15zm0-46.46c-9.67 0-17.55 10-17.55 22.36s7.87 22.36 17.55 22.36 17.55-10 17.55-22.36-7.88-22.38-17.55-22.38zm.01 66.06c-7.018-.005-12.712-5.682-12.74-12.7h2c.177 5.8 4.93 10.412 10.735 10.412 5.804 0 10.558-4.61 10.735-10.412h2c-.027 7.01-5.71 12.684-12.72 12.7z"/><path fill="#b71c22" d="M118 82.13c-8.616 0-15.6-6.984-15.6-15.6h2c0 7.51 6.09 13.6 13.6 13.6s13.6-6.09 13.6-13.6h2c0 4.137-1.644 8.105-4.57 11.03-2.925 2.926-6.893 4.57-11.03 4.57z"/><g fill="#b71c22" opacity=".18999999"><path d="M81.9 3.25h8.5v2h-8.5"/><path d="M85.15 0h2v8.5h-2"/></g><g fill="#1581d5" opacity=".18999999"><path d="M45.5 105H54v2h-8.5"/><path d="M48.74 101.75h2v8.5h-2"/></g><g fill="#b71c22" opacity=".18999999"><path d="M153 55h8.5v2H153"/><path d="M156.24 51.75h2v8.5h-2"/></g><path fill="#b71c22" d="M165 112.72h-22.34c-1.546 0-2.8-1.254-2.8-2.8V79.74c0-1.546 1.254-2.8 2.8-2.8H165c1.546 0 2.8 1.254 2.8 2.8v30.16c.005.746-.287 1.463-.813 1.993s-1.24.827-1.987.827zm-22.34-33.77c-.442 0-.8.358-.8.8v30.16c-.005.216.077.424.227.58.15.153.357.24.573.24H165c.442 0 .8-.358.8-.8V79.74c0-.442-.358-.8-.8-.8z"/><path fill="#b71c22" d="M162 99.26h-16c-.552 0-1-.448-1-1s.448-1 1-1h16c.552 0 1 .448 1 1s-.448 1-1 1zm0 6.54h-16c-.552 0-1-.448-1-1s.448-1 1-1h16c.552 0 1 .448 1 1s-.448 1-1 1z" opacity=".18999999"/><text fill="#b71c22" fill-rule="evenodd" font-family="OpenSans-Extrabold,'Open Sans'" font-size="10.60000038" font-weight="600" opacity=".18999999"><tspan x="145.61" y="91.839996">$</tspan></text><g fill="#b71c22" opacity=".18999999"><path d="M38.92 67.95H5.78C2.592 67.94.01 65.358 0 62.17v-3c.01-3.188 2.592-5.77 5.78-5.78h27.35c3.184.01 5.764 2.586 5.78 5.77zM5.78 54.4C3.137 54.41 1 56.557 1 59.2v3c.016 2.63 2.15 4.76 4.78 4.77h32.14V59.2c0-2.643-2.137-4.79-4.78-4.8H5.78z"/><path d="M31.5 59.37h-22c-.276 0-.5-.224-.5-.5s.224-.5.5-.5h22c.276 0 .5.224.5.5s-.224.5-.5.5zm0 3.46H28c-.276 0-.5-.224-.5-.5s.224-.5.5-.5h3.46c.276 0 .5.224.5.5s-.224.5-.5.5zm-7.68 0H9.38c-.276 0-.5-.224-.5-.5s.224-.5.5-.5h14.44c.276 0 .5.224.5.5s-.224.5-.5.5z"/></g><circle cx="92" cy="105" r="18" fill="#f3f3f3" fill-rule="evenodd" stroke="#b71c22" stroke-width="2"/><path fill="#b71c22" d="M90.154 97.214c-.34 0-.63.12-.87.356-.24.237-.36.523-.36.86v8.5l-1.453-1.918c-.26-.34-.604-.512-1.027-.512-.333 0-.618.12-.855.36-.238.24-.356.525-.356.854 0 .272.084.516.25.73l3.693 4.858c.244.322.57.484.98.484h6.905c.14 0 .267-.043.38-.128.112-.086.184-.195.216-.328l.884-3.49c.154-.608.23-1.22.23-1.84v-2.06c0-.26-.09-.484-.268-.673-.18-.19-.397-.285-.654-.285-.256 0-.474.09-.654.266-.18.177-.27.392-.27.645h-.307v-.58c0-.302-.102-.56-.307-.772-.205-.21-.462-.316-.77-.316-.294 0-.548.105-.76.313-.21.21-.316.46-.316.75v.607h-.308v-.854c0-.35-.12-.648-.356-.897-.237-.25-.53-.375-.875-.375-.34 0-.63.118-.87.356-.24.237-.36.523-.36.858v.91h-.308v-5.407c0-.347-.12-.646-.356-.896-.237-.25-.53-.377-.875-.377zm0-1.214c.686 0 1.267.245 1.745.735.476.49.714 1.074.714 1.75v2.088c.14-.013.244-.02.308-.02.635 0 1.19.22 1.664.655.3-.133.618-.2.95-.2.726 0 1.316.276 1.77.826.174-.044.353-.066.54-.066.602 0 1.11.213 1.528.64.417.427.625.938.625 1.532V106c0 .733-.09 1.444-.27 2.133l-.885 3.49c-.102.406-.32.737-.654.993-.332.256-.71.384-1.133.384h-6.904c-.385 0-.752-.087-1.1-.26-.35-.175-.64-.41-.87-.708l-3.694-4.857c-.328-.43-.49-.917-.49-1.46 0-.665.24-1.236.715-1.713.478-.478 1.053-.716 1.726-.716.456 0 .873.11 1.25.332v-5.19c0-.67.24-1.242.72-1.717.483-.472 1.063-.71 1.743-.71z"/></svg>