<svg xmlns="http://www.w3.org/2000/svg" width="124" height="111"><g fill="none" fill-rule="evenodd"><g fill="#b71c22" fill-rule="nonzero" opacity=".18999999"><path d="M114.1 36.3h8.5v2h-8.5"/><path d="M117.34 33.04h2v8.5h-2"/></g><path fill="#b71c22" fill-rule="nonzero" d="M8.93 4.06h6.62v2H8.93zM0 12.76h15.55v2H0zm5.4 8.2h10.14v2H5.4z" opacity=".18999999"/><path fill="#b71c22" fill-rule="nonzero" d="M33.12 12.92c-.93.045-1.795-.48-2.183-1.33-.388-.846-.22-1.844.42-2.52.644-.674 1.633-.89 2.498-.545.866.346 1.434 1.183 1.435 2.115.016.592-.205 1.166-.615 1.595-.41.428-.973.675-1.565.685zm0-3.53c-.523-.025-1.01.272-1.225.75-.217.477-.12 1.037.242 1.415.363.378.92.497 1.405.3.485-.198.802-.67.798-1.195.008-.332-.116-.653-.345-.893-.23-.24-.543-.38-.875-.387zm8.5 3.52c-.932.05-1.8-.474-2.19-1.32-.39-.848-.227-1.848.415-2.525.64-.677 1.63-.895 2.498-.55.866.344 1.436 1.182 1.437 2.115.016.59-.204 1.163-.61 1.59-.408.43-.97.677-1.56.69zm0-3.53c-.525-.033-1.016.258-1.24.734-.222.477-.13 1.04.23 1.423.36.382.92.504 1.407.308.487-.195.806-.67.803-1.195.017-.683-.517-1.253-1.2-1.28zm8.8 3.52c-.93.04-1.792-.488-2.176-1.336-.385-.848-.215-1.844.428-2.517.644-.673 1.632-.888 2.496-.54.864.345 1.43 1.182 1.432 2.113.016.59-.204 1.163-.61 1.59-.408.43-.97.677-1.56.69zm0-3.53c-.523-.02-1.005.28-1.22.757-.212.477-.113 1.037.25 1.413.364.375.92.492 1.405.294.484-.198.8-.67.795-1.194.008-.332-.116-.653-.345-.893-.23-.24-.543-.38-.875-.387z"/><path fill="#b71c22" fill-rule="nonzero" d="M71.37 89.83h-42.3c-3.352 0-6.07-2.718-6.07-6.07V6.06C23.006 2.712 25.722 0 29.07 0h33.8v2h-33.8c-1.08 0-2.118.43-2.88 1.196C25.424 3.96 24.996 5 25 6.08v77.7c0 2.248 1.822 4.07 4.07 4.07h42.3zM96.985 6.08C96.98 2.732 94.148 0 90.8 0H62.93v2H90.8c1.08 0 2.118.43 2.88 1.196.765.765 1.36 1.803 1.357 2.884zm-1.965-.007h2V62.75h-2z"/><path fill="#b71c22" fill-rule="nonzero" d="M71.92 77.04H25.08v10.92h46.76" opacity=".18999999"/><path fill="#b71c22" fill-rule="nonzero" d="M71.5 78h-47c-.552 0-1-.448-1-1s.448-1 1-1h47c.552 0 1 .448 1 1s-.448 1-1 1z"/><g fill="#b71c22" fill-rule="nonzero"><path d="M118 60.35H75.8c-2.882.005-5.22 2.338-5.23 5.22v24.36c.01 2.878 2.342 5.21 5.22 5.22H118c2.878-.01 5.21-2.342 5.22-5.22V65.56c-.022-2.87-2.35-5.19-5.22-5.2zm-42.2 2.12H118c1.708.01 3.09 1.392 3.1 3.1V69H72.7v-3.44c.01-1.708 1.392-3.09 3.1-3.1zM118 93H75.8c-1.708-.01-3.09-1.392-3.1-3.1V71.1h48.37v18.83c-.027 1.684-1.386 3.043-3.07 3.07z"/><path d="M102.6 83.3c-1.314 1.317-1.313 3.45.003 4.765 1.316 1.315 3.448 1.315 4.764 0 1.316-1.316 1.317-3.448.003-4.765-.632-.633-1.49-.99-2.385-.99-.895 0-1.753.357-2.385.99zm3.26 3.25c-.488.487-1.28.487-1.767 0-.488-.49-.488-1.28 0-1.77.488-.487 1.28-.487 1.767 0 .483.487.483 1.273 0 1.76zm4.99-3.25c-1.314 1.317-1.313 3.45.003 4.765 1.316 1.315 3.448 1.315 4.764 0 1.316-1.316 1.317-3.448.003-4.765-.628-.63-1.48-.982-2.37-.982-.89 0-1.742.353-2.37.982zm3.26 3.25c-.488.487-1.28.487-1.767 0-.488-.49-.488-1.28 0-1.77.488-.487 1.28-.487 1.767 0 .483.487.483 1.273 0 1.76z"/></g><path fill="#b71c22" fill-rule="nonzero" d="M53.32 53.63l-2.64-7.34h-10.1L38 53.62h-4.57l9.9-26.54H48l9.9 26.53zm-3.78-11.06l-2.48-7.2c-.18-.48-.43-1.24-.75-2.28-.32-1.04-.537-1.807-.65-2.3-.375 1.652-.852 3.278-1.43 4.87l-2.4 6.9zM63.6 30.8h21.5v2H63.6zm0 6.5h21.5v2H63.6zm0 6.5h21.5v2H63.6zm0 6.5h21.5v2H63.6z" opacity=".18999999"/><path fill="#b71c22" fill-rule="nonzero" d="M60.25 86.6c-1.683 0-3.048-1.364-3.05-3.047-.002-1.683 1.36-3.05 3.043-3.053 1.684-.004 3.05 1.357 3.057 3.04 0 1.684-1.366 3.05-3.05 3.05zm0-4.1c-.426 0-.81.257-.97.65-.163.394-.07.847.23 1.146.304.3.757.387 1.15.22.39-.165.644-.55.64-.976 0-.58-.47-1.05-1.05-1.05z"/><g transform="translate(56 76)"><circle cx="18.04" cy="17.05" r="16.05"/><circle cx="17.53" cy="17.36" r="16.44"/><path d="M18 34.1c-6.9 0-13.12-4.16-15.757-10.537-2.636-6.377-1.168-13.715 3.72-18.587C10.847.104 18.19-1.344 24.558 1.312 30.93 3.967 35.07 10.2 35.05 17.1c-.04 9.392-7.658 16.99-17.05 17zM18 2C9.688 2 2.95 8.738 2.95 17.05 2.95 25.362 9.688 32.1 18 32.1c8.312 0 15.05-6.738 15.05-15.05C33.04 8.743 26.307 2.01 18 2z"/><path d="M15.2 23.26L9.83 17.9l1.4-1.42 3.96 3.95 9.9-9.9 1.4 1.4-11.3 11.33"/></g></g></svg>