<svg xmlns="http://www.w3.org/2000/svg" width="140" height="124"><g fill="#1581d5" opacity=".18999999"><path d="M130.75 54.42h8.5v2h-8.5"/><path d="M134 51.17h2v8.5h-2"/></g><g fill="#1581d5" opacity=".18999999"><path d="M0 87.17h8.5v2H0"/><path d="M3.25 83.92h2v8.5h-2"/></g><path fill="#f1d5d6" d="M65.33 75.17l-11.16-10.5L42.83 74 30.8 60.26 14.66 73.83l-.34 8.34 2.5 2.33 34.34.83 9.66-.16 2.84-1.34m56.84.43v8c0 2.485-2.015 4.5-4.5 4.5H76.64c-2.485 0-4.5-2.015-4.5-4.5v-8" opacity=".18999999"/><path fill="#b71c22" d="M120 84.15H71.63c-.552 0-1-.448-1-1s.448-1 1-1H120c.552 0 1 .448 1 1s-.448 1-1 1zM96.68 95c-2.485 0-4.5-2.015-4.5-4.5s2.015-4.5 4.5-4.5 4.5 2.015 4.5 4.5-2.015 4.5-4.5 4.5zm0-7c-1.38 0-2.5 1.12-2.5 2.5s1.12 2.5 2.5 2.5 2.5-1.12 2.5-2.5-1.12-2.5-2.5-2.5z"/><path fill="#b71c22" d="M113.35 4.64h-13.4c.7.606 1.343 1.276 1.92 2h11.47c3.124.006 5.654 2.536 5.66 5.66v4.83h-13.83v2H119V90.8c-.006 3.124-2.536 5.654-5.66 5.66H78.3c-3.128 0-5.664-2.532-5.67-5.66V31h-2v59.8c.006 4.228 3.432 7.654 7.66 7.66h35.05c4.228-.006 7.654-3.432 7.66-7.66V12.3c-.005-4.224-3.426-7.65-7.65-7.66z"/><path fill="#b71c22" d="M106.17 32h-70c-8.837 0-16-7.163-16-16s7.163-16 16-16h54c8.837 0 16 7.163 16 16zm-70-30c-7.732 0-14 6.268-14 14s6.268 14 14 14h68V16c0-7.732-6.268-14-14-14z"/><path fill="#b71c22" d="M89.83 13H41.17c-.552 0-1-.448-1-1s.448-1 1-1h48.66c.552 0 1 .448 1 1s-.448 1-1 1zm0 7.67h-7.66c-.552 0-1-.448-1-1s.448-1 1-1h7.67c.552 0 1 .448 1 1s-.448 1-1 1zm-17 0h-32c-.552 0-1-.448-1-1s.448-1 1-1h32c.552 0 1 .448 1 1s-.448 1-1 1zM61.22 85.7H17.7c-2.407-.005-4.36-1.953-4.37-4.36V46.7c0-2.415 1.955-4.374 4.37-4.38h43.52c2.41.005 4.365 1.96 4.37 4.37v34.64c-.006 2.415-1.965 4.37-4.38 4.37zM17.7 44.33c-1.307.005-2.365 1.063-2.37 2.37v34.64c.005 1.307 1.063 2.365 2.37 2.37h43.52c1.303-.005 2.36-1.057 2.37-2.36V46.7c0-1.314-1.066-2.38-2.38-2.38z"/><path fill="#b71c22" d="M51.16 85.7c-.3.003-.587-.13-.78-.36L30.85 61.1c-.067-.064-.157-.1-.25-.1-.1-.008-.2.028-.27.1L15 75.26c-.255.273-.64.38-1 .28-.36-.102-.634-.395-.71-.76-.075-.367.06-.745.35-.98L29 59.6c.48-.447 1.125-.675 1.78-.627.654.047 1.26.365 1.67.877l19.5 24.23c.246.303.293.72.12 1.07-.17.35-.53.57-.92.56z"/><path fill="#b71c22" d="M64.6 75.53c-.27.002-.53-.107-.72-.3l-9.6-9.6c-.14-.135-.36-.135-.5 0L44.33 74c-.414.367-1.048.33-1.415-.085-.367-.414-.33-1.048.085-1.415l9.45-8.37c.937-.837 2.366-.793 3.25.1l9.6 9.6c.28.286.363.71.21 1.08-.152.37-.51.614-.91.62zM44.73 60.34c-2.485 0-4.5-2.015-4.5-4.5s2.015-4.5 4.5-4.5 4.5 2.015 4.5 4.5-2.015 4.5-4.5 4.5zm0-7c-1.38 0-2.5 1.12-2.5 2.5s1.12 2.5 2.5 2.5 2.5-1.12 2.5-2.5-1.12-2.5-2.5-2.5z"/><path fill="#f1d5d6" d="M110.2 5.1h-9.76c3.016 2.823 4.728 6.77 4.73 10.9v1.58h14.55v-3c-.028-5.244-4.286-9.48-9.53-9.48z" opacity=".18999999"/><circle cx="70" cy="105" r="18" fill="#f3f3f3" fill-rule="evenodd" stroke="#b71c22" stroke-width="2"/><g fill="#b71c22"><path d="M69.517 107.905c-1.595 0-2.894-1.34-2.894-2.985 0-1.645 1.298-2.984 2.894-2.984s2.895 1.34 2.895 2.984c0 1.646-1.3 2.985-2.895 2.985zm0-4.744c-.94 0-1.706.79-1.706 1.76s.767 1.76 1.707 1.76c.94 0 1.707-.79 1.707-1.76s-.766-1.76-1.707-1.76z"/><path d="M69.517 114.684c-1.016 0-1.842-.883-1.842-1.968v-.914c-.55-.155-1.076-.38-1.573-.672l-.626.646c-.37.38-.855.59-1.37.59-.488 0-.944-.193-1.283-.542-.718-.74-.697-1.968.046-2.735l.626-.647c-.283-.512-.502-1.054-.652-1.62h-.885c-1.053 0-1.91-.854-1.91-1.9 0-1.05.857-1.9 1.91-1.9h.883c.15-.568.37-1.11.652-1.624l-.626-.646c-.744-.767-.765-1.993-.047-2.734.34-.35.795-.542 1.284-.542.514 0 1 .21 1.37.59l.623.643c.497-.29 1.024-.516 1.575-.672v-.91c0-1.085.826-1.968 1.842-1.968s1.843.883 1.843 1.968v.91c.55.156 1.077.38 1.574.673l.624-.643c.37-.38.855-.59 1.37-.59.49 0 .945.193 1.283.542.72.74.698 1.967-.046 2.734l-.625.644c.282.513.5 1.056.65 1.623h.885c1.052 0 1.908.853 1.908 1.9 0 1.05-.856 1.9-1.908 1.9h-.884c-.15.57-.37 1.11-.652 1.623l.626.646c.744.766.765 1.993.047 2.734-.337.35-.793.54-1.283.54-.514 0-1-.208-1.37-.588l-.626-.646c-.495.29-1.02.516-1.57.672v.913c0 1.086-.827 1.97-1.843 1.97zm-3.503-4.94c.114 0 .23.033.33.102.622.428 1.31.72 2.04.872.278.058.478.31.478.6v1.398c0 .41.294.743.655.743.36 0 .655-.334.655-.744v-1.397c0-.293.2-.544.477-.602.73-.15 1.417-.444 2.04-.872.237-.162.55-.13.75.077l.958.988c.268.277.73.3.973.05.256-.264.235-.714-.046-1.004l-.958-.988c-.2-.206-.23-.53-.074-.773.415-.642.7-1.35.847-2.106.055-.287.3-.492.582-.492h1.353c.397 0 .72-.303.72-.676 0-.373-.323-.675-.72-.675h-1.353c-.283 0-.527-.207-.583-.493-.147-.754-.432-1.463-.847-2.106-.157-.243-.126-.566.074-.772l.957-.987c.28-.29.302-.74.047-1.004-.243-.25-.704-.23-.973.048l-.956.986c-.2.206-.512.24-.748.077-.623-.428-1.31-.723-2.044-.874-.277-.057-.477-.308-.477-.6v-1.39c0-.41-.292-.745-.653-.745-.362 0-.655.334-.655.744v1.392c0 .292-.2.544-.477.6-.733.152-1.42.446-2.045.875-.235.16-.55.13-.75-.077l-.955-.986c-.27-.276-.73-.298-.973-.048-.255.263-.234.714.046 1.003l.957.986c.2.206.23.53.075.772-.416.644-.7 1.352-.847 2.107-.055.286-.3.492-.582.492H61.96c-.398 0-.72.303-.72.675 0 .373.322.676.72.676h1.353c.284 0 .528.206.583.492.147.753.432 1.462.847 2.106.157.242.126.566-.074.772l-.958.988c-.28.29-.302.74-.046 1.003.242.25.704.228.973-.05l.958-.987c.116-.12.268-.18.42-.18z"/></g></svg>