<svg xmlns="http://www.w3.org/2000/svg" width="176" height="110"><path fill="#b71c22" stroke="#b71c22" d="M31.57 17.15c-1.226.065-2.368-.622-2.883-1.737-.515-1.114-.3-2.43.544-3.32.846-.893 2.148-1.18 3.29-.727 1.14.454 1.89 1.556 1.89 2.784.028.774-.256 1.527-.79 2.09-.53.564-1.264.892-2.04.91h-.01zm0-4.6c-.682-.03-1.313.36-1.593.983s-.153 1.353.32 1.844c.474.492 1.2.646 1.832.39.63-.258 1.042-.874 1.04-1.557.007-.432-.157-.85-.457-1.16-.3-.313-.712-.492-1.144-.5zm11.1 4.6c-1.227.074-2.375-.61-2.897-1.722-.52-1.113-.31-2.432.53-3.327.843-.894 2.146-1.185 3.29-.734 1.143.452 1.895 1.556 1.897 2.785.027.777-.258 1.53-.792 2.095-.534.564-1.272.89-2.048.906h.02zm0-4.6c-.683-.037-1.32.347-1.607.968-.286.622-.164 1.355.307 1.85.472.497 1.2.654 1.834.4.634-.257 1.05-.874 1.046-1.558.008-.432-.156-.85-.456-1.16-.3-.313-.712-.492-1.144-.5zm11.5 4.6c-1.226.07-2.37-.616-2.89-1.73-.518-1.113-.305-2.43.538-3.324.843-.893 2.145-1.183 3.287-.73 1.142.452 1.893 1.556 1.895 2.784.027.774-.257 1.527-.79 2.09-.53.564-1.265.892-2.04.91zm0-4.6c-.682-.03-1.313.36-1.593.983s-.153 1.353.32 1.844c.474.492 1.2.646 1.832.39.63-.258 1.042-.874 1.04-1.557.007-.432-.157-.85-.457-1.16-.3-.313-.712-.492-1.144-.5z"/><path fill="#f1d5d6" stroke="#b71c22" d="M35.87 46.37h95.63V70.7H35.87"/><path fill="#b71c22" stroke="#b71c22" d="M132.5 71.7H34.87V45.36h97.63zm-95.63-2h93.63V47.36H36.87z"/><path fill="#b71c22" stroke="#b71c22" d="M89.75 54h-46.5c-.552 0-1-.448-1-1s.448-1 1-1h46.5c.552 0 1 .448 1 1s-.448 1-1 1zm-14.83 6H43.25c-.552 0-1-.448-1-1s.448-1 1-1h31.67c.552 0 1 .448 1 1s-.448 1-1 1zm10.58 6.05H43.25c-.552 0-1-.448-1-1s.448-1 1-1H85.5c.552 0 1 .448 1 1s-.448 1-1 1zM127.23 63h-24.48v-8.4h24.48zm-23.48-1h22.48v-6.4h-22.48z"/><g fill="#f1d5d6" stroke="#b71c22" opacity=".46000001"><path d="M40.06 28.37h86.67v12.16H40.06"/><path d="M127.23 41H39.56V27.87h87.67zm-86.67-1h85.67V28.87H40.56z"/></g><g fill="#f1d5d6" stroke="#b71c22" opacity=".46000001"><path d="M40.4 77.12h86.66v12.16H40.4"/><path d="M127.56 89.78H39.9V76.62h87.66zm-86.67-1h85.66V77.62H40.9z"/></g><g fill="#b71c22" stroke="#b71c22" opacity=".18999999"><path d="M0 36.46h8.5v2H0"/><path d="M3.25 33.2h2v8.5h-2"/></g><g fill="#b71c22" stroke="#b71c22" opacity=".18999999"><path d="M167 62.46h8.5v2H167"/><path d="M170.25 59.2h2v8.5h-2"/></g><rect width="134" height="93" x="18.5" y="1.5" fill="none" stroke="#b71c22" stroke-width="3" rx="8"/><circle cx="89" cy="91" r="18" fill="#f3f3f3" fill-rule="evenodd" stroke="#b71c22" stroke-width="2"/><path fill="#b71c22" d="M81 97.17L93.16 85l1.4 1.4L82.4 98.58"/><path fill="#b71c22" d="M93.9 96.9c-.552 0-1-.448-1-1V87H84c-.552 0-1-.448-1-1s.448-1 1-1h10.9v10.9c0 .552-.448 1-1 1z"/></svg>