<svg xmlns="http://www.w3.org/2000/svg" width="677" height="554" version="1"><text x="43" y="-107" fill="#b71c22" font-family="Poet" font-size="88" font-weight="400" style="-inkscape-font-specification:Poet" transform="matrix(1.33333 0 0 1.33333 -58 635)"><tspan x="43" y="-107" font-size="72" letter-spacing="2">ACCOUNTANT</tspan></text><text x="131" y="-67" fill="#b71c22" font-family="AvantGardeITCbyBT" font-size="28" font-weight="400" style="-inkscape-font-specification:AvantGardeITCbyBT-Book" transform="matrix(1.33333 0 0 1.33333 -58 635)"><tspan x="131" y="-67" font-family="Poet" letter-spacing="2" style="-inkscape-font-specification:Poet" word-spacing="0">SOLUÇÕES CONTÁBEIS</tspan></text><path fill="#859397" fill-rule="evenodd" d="M301 164l-63 12v84c18 10 39 17 63 22zM376 136a566 566 0 0 1-63 23v125a283 283 0 0 0 63 3zM451 94c-19 12-40 24-63 34v157c23-2 44-8 63-16z"/><path fill="#b71c22" fill-rule="evenodd" d="M254 80c-84 22-144 78-144 142 0 85 102 154 229 154 126 0 228-69 228-154 0-35-17-67-47-93 20 21 32 46 32 73 0 76-92 138-205 138s-205-62-205-138c0-53 46-100 112-122"/><path fill="#859397" fill-rule="evenodd" d="M277 88c-72 18-122 63-122 115 0 68 86 123 192 123 107 0 193-55 193-123 0-29-15-55-40-76 17 18 27 38 27 60 0 61-77 110-173 110-95 0-172-49-172-110 0-43 38-81 95-99"/><path fill="#b71c22" fill-rule="evenodd" d="M238 170c62-9 121-34 174-67 9-6 16-10 24-17 5-3 19-12 24-17l5 13 6 13c2-1 2-1 3-5 7-17 36-82 38-90l-90 35-7 4h1l23 10c-3 7-49 38-59 44l-21 14c-33 17-56 27-93 39l-27 8z"/></svg>