<?xml version="1.0" encoding="UTF-8" standalone="no"?>
<svg
   xmlns:dc="http://purl.org/dc/elements/1.1/"
   xmlns:cc="http://creativecommons.org/ns#"
   xmlns:rdf="http://www.w3.org/1999/02/22-rdf-syntax-ns#"
   xmlns:svg="http://www.w3.org/2000/svg"
   xmlns="http://www.w3.org/2000/svg"
   viewBox="0 0 677.04297 553.66406"
   height="553.66406"
   width="677.04297"
   xml:space="preserve"
   id="svg2"
   version="1.1"><metadata
     id="metadata8"><rdf:RDF><cc:Work
         rdf:about=""><dc:format>image/svg+xml</dc:format><dc:type
           rdf:resource="http://purl.org/dc/dcmitype/StillImage" /><dc:title></dc:title></cc:Work></rdf:RDF></metadata><defs
     id="defs6" /><g
     transform="matrix(1.3333333,0,0,-1.3333333,-58.331699,634.87598)"
     id="g10"><g
       id="g176"><text
         transform="scale(1,-1)"
         style="font-style:normal;font-variant:normal;font-weight:normal;font-stretch:normal;font-size:88.1969986px;font-family:Poet;-inkscape-font-specification:Poet;writing-mode:lr-tb;fill:#b71c22;fill-opacity:1;fill-rule:nonzero;stroke:none"
         id="text34"
         x="42.956776"
         y="-106.6564"><tspan
           x="42.956776"
           y="-106.6564"
           id="tspan32"
           style="font-size:72px;letter-spacing:1.5px">ACCOUNTANT</tspan></text>
<text
         transform="scale(1,-1)"
         style="font-variant:normal;font-weight:normal;font-size:28.3220005px;font-family:AvantGardeITCbyBT;-inkscape-font-specification:AvantGardeITCbyBT-Book;writing-mode:lr-tb;fill:#b71c22;fill-opacity:1;fill-rule:nonzero;stroke:none"
         id="text38"
         x="130.55798"
         y="-67.224762"><tspan
           id="tspan36"
           style="font-style:normal;font-variant:normal;font-weight:normal;font-stretch:normal;font-family:Poet;-inkscape-font-specification:Poet;letter-spacing:1.5px;word-spacing:0px"
           x="130.55798"
           y="-67.224762">SOLUÇÕES CONTÁBEIS</tspan></text>
<g
         id="g161"><path
           id="path16"
           d="m 269.42725,353.4045 c -16.4633,-4.30565 -32.2875,-7.27858 -46.9497,-8.91 v -63.6153 c 13.38591,-7.20357 29.33796,-12.76218 46.9497,-16.15471 z"
           style="fill:#859397;fill-opacity:1;fill-rule:evenodd;stroke:none;stroke-width:0.96021849" /><path
           id="path18"
           d="m 325.53809,374.12774 c -2.92419,-1.25027 -5.88198,-2.48008 -8.87988,-3.68242 -12.8455,-5.15296 -25.60752,-9.5507 -38.06983,-13.19627 v -94.35114 c 9.91733,-1.46434 20.2752,-2.25342 30.94336,-2.25342 5.42016,0 10.76127,0.20293 16.00635,0.5922 z"
           style="fill:#859397;fill-opacity:1;fill-rule:evenodd;stroke:none;stroke-width:0.96850944" /><path
           id="path20"
           d="m 381.64747,405.67875 c -13.8841,-9.1315 -29.67961,-17.89745 -46.94971,-25.88268 V 262.21799 c 17.0997,2.05429 32.98973,6.15845 46.94971,11.8799 z"
           style="fill:#859397;fill-opacity:1;fill-rule:evenodd;stroke:none;stroke-width:0.97484201" /><path
           id="path22"
           style="fill:#b71c22;fill-opacity:1;fill-rule:evenodd;stroke:none"
           d="m 234.4683,416.4199 c -63.5052,-16.8837 -108.419,-58.4659 -108.419,-107.0898 0,-63.5938 76.8237,-115.1464 171.5908,-115.1464 94.7667,0 171.5904,51.5526 171.5904,115.1464 0,26.5003 -13.3483,50.9046 -35.7684,70.3639 15.1702,-15.9832 23.9635,-34.958 23.9635,-55.3119 0,-56.9435 -68.79,-103.1051 -153.6468,-103.1051 -84.8566,0 -153.6466,46.1616 -153.6466,103.1051 0,40.2083 34.3018,75.0368 84.3361,92.0378" /><g
           transform="scale(0.60841,0.60561)"
           id="g24" /><path
           id="path28"
           style="fill:#859397;fill-opacity:1;fill-rule:evenodd;stroke:none"
           d="m 251.1658,410.1775 c -53.4782,-13.5865 -91.3003,-47.0481 -91.3003,-86.1758 0,-51.1741 64.6937,-92.6586 144.4975,-92.6586 79.8035,0 144.4972,41.4845 144.4972,92.6586 0,21.3248 -11.2408,40.9632 -30.1207,56.6223 12.7749,-12.8619 20.1796,-28.131 20.1796,-44.5099 0,-45.8226 -57.9283,-82.9689 -129.3866,-82.9689 -71.4583,0 -129.3865,37.1463 -129.3865,82.9689 0,32.3558 28.8856,60.3825 71.0198,74.0634" /><path
           id="path30"
           style="fill:#b71c22;fill-opacity:1;fill-rule:evenodd;stroke:none"
           d="m 222.5078,348.4783 c 46.5485,6.8391 90.7784,25.6867 130.3469,50.762 6.3116,4 12.2547,7.4707 18.0802,12.0625 3.4762,2.74 13.9947,9.3819 17.627,12.9186 1.4907,-2.8559 2.666,-6.4298 4.0136,-9.7585 l 4.4396,-9.6446 c 1.8462,0.9964 1.5443,1.0928 2.5197,3.562 5.046,12.7732 26.3891,61.8611 28.0222,67.7767 l -67.5468,-26.5408 c -1.7935,-0.6996 -3.5541,-1.1183 -4.6397,-2.4435 0.1275,-0.1066 0.3475,-0.0827 0.403,-0.2928 l 17.3637,-7.3094 c -2.5719,-5.3073 -36.9856,-28.9539 -44.1409,-33.4786 -5.0028,-3.1635 -10.745,-6.9664 -16.1841,-9.8277 -24.6554,-12.9694 -41.5386,-20.3049 -69.4735,-29.5682 l -20.3935,-6.0426 z" /><g
           id="g141"
           transform="scale(0.60841,0.60561)" /></g></g><g
       transform="scale(0.60841,0.60561)"
       id="g145" /></g></svg>