<svg xmlns="http://www.w3.org/2000/svg" width="458" height="376" version="1"><path fill="#859397" fill-rule="evenodd" d="M191 164l-62 12v84c17 10 39 17 62 22zM266 136a566 566 0 0 1-63 23v125a283 283 0 0 0 63 3zM341 94c-19 12-40 24-63 34v157c23-2 44-8 63-16z"/><path fill="#b71c22" fill-rule="evenodd" d="M145 80C60 102 0 158 0 222c0 85 102 154 229 154 126 0 229-69 229-154 0-35-18-67-48-93 20 21 32 46 32 73 0 76-92 138-205 138S32 278 32 202c0-53 46-100 113-122"/><path fill="#859397" fill-rule="evenodd" d="M167 88C96 106 45 151 45 203c0 68 86 123 193 123 106 0 192-55 192-123 0-29-15-55-40-76 17 18 27 38 27 60 0 61-77 110-172 110-96 0-173-49-173-110 0-43 39-81 95-99"/><path fill="#b71c22" fill-rule="evenodd" d="M129 170c62-9 121-34 173-67 9-6 17-10 25-17 4-3 18-12 23-17l5 13 6 13c3-1 2-1 4-5 6-17 35-82 37-90l-90 35c-2 1-5 2-6 4l23 10c-3 7-49 38-58 44l-22 14c-33 17-55 27-93 39l-27 8z"/></svg>